<?xml version="1.0" encoding="UTF-8" standalone="no"?>
<svg width="108px" height="109px" viewBox="0 0 108 109" version="1.1" xmlns="http://www.w3.org/2000/svg" xmlns:xlink="http://www.w3.org/1999/xlink">
    <!-- Generator: Sketch 41.2 (35397) - http://www.bohemiancoding.com/sketch -->
    <title>etapa-3</title>
    <desc>Created with Sketch.</desc>
    <defs>
        <polygon id="path-1" points="0 52.4961 72.348 52.4961 72.348 0.0001 0 0.0001"></polygon>
    </defs>
    <g id="Page-1" stroke="none" stroke-width="1" fill="none" fill-rule="evenodd">
        <g id="etapa-3">
            <path d="M106.938963,54.0422418 C106.938963,24.7469451 83.2234074,1 53.9694815,1 C24.7155556,1 1,24.7469451 1,54.0422418 C1,83.3375385 24.7155556,107.084484 53.9694815,107.084484 C83.2234074,107.084484 106.938963,83.3375385 106.938963,54.0422418" id="Fill-1-Copy" fill="#F7BD3A"></path>
            <g id="Page-1" transform="translate(18.000000, 28.000000)">
                <path d="M70.6797,34.1231 C70.5257,33.1261 70.2707,32.1291 69.8977,31.1471 C69.5257,30.1661 69.0547,29.2511 68.5077,28.4021 L64.6917,29.8521 L63.1927,28.2551 L64.8627,24.5421 C63.1997,23.3241 61.2967,22.4691 59.2827,22.0321 L57.6127,25.7461 C57.6127,25.7461 56.1597,25.6301 55.4237,25.6851 L53.9747,21.8671 C52.9777,22.0211 51.9807,22.2761 50.9987,22.6491 C50.0177,23.0211 49.1027,23.4921 48.2547,24.0391 L49.7027,27.8551 C49.1167,28.3041 48.5807,28.8051 48.1067,29.3541 L44.3937,27.6851 C43.1757,29.3481 42.3207,31.2501 41.8837,33.2651 L45.5977,34.9351 C45.5977,34.9351 45.4827,36.3871 45.5357,37.1231 L41.7187,38.5721 C41.8727,39.5691 42.1277,40.5661 42.5007,41.5481 C42.8737,42.5291 43.3437,43.4441 43.8907,44.2921 L47.7067,42.8441 C48.1567,43.4311 48.6567,43.9661 49.2057,44.4401 L47.5357,48.1531 C49.1997,49.3711 51.1017,50.2271 53.1167,50.6631 L54.7857,46.9491 C55.5047,47.0461 56.2387,47.0641 56.9747,47.0111 L58.4237,50.8281 C59.4207,50.6741 60.4177,50.4191 61.3997,50.0461 C62.3807,49.6741 63.2957,49.2031 64.1447,48.6561 L62.6957,44.8401 C63.2827,44.3911 63.8187,43.8911 64.2917,43.3411 L68.0047,45.0111 C69.2237,43.3481 70.0777,41.4451 70.5147,39.4311 L66.8007,37.7611 C66.8977,37.0421 66.9167,36.3091 66.8627,35.5711 L70.6797,34.1231 Z" id="Fill-1" fill="#FEFEFE"></path>
                <path d="M57.9805,45.4336 L59.3765,49.1086 C59.8855,48.9826 60.3835,48.8276 60.8665,48.6436 C61.3505,48.4596 61.8265,48.2466 62.2925,48.0016 L60.8965,44.3286 L61.7835,43.6486 C62.2965,43.2556 62.7575,42.8236 63.1555,42.3616 L63.8865,41.5136 L67.4615,43.1216 C68.0015,42.2276 68.4285,41.2766 68.7415,40.2786 L65.1655,38.6696 L65.3145,37.5606 C65.3965,36.9516 65.4145,36.3196 65.3665,35.6826 L65.2835,34.5656 L68.9595,33.1706 C68.8345,32.6616 68.6785,32.1626 68.4955,31.6806 C68.3115,31.1966 68.0975,30.7206 67.8535,30.2546 L64.2855,31.6106 L61.4145,28.5516 L62.9735,25.0846 C62.0785,24.5456 61.1265,24.1186 60.1285,23.8056 L58.5465,27.3256 L57.4935,27.2416 C56.9745,27.2006 55.9875,27.1456 55.5355,27.1806 L54.4185,27.2636 L53.0225,23.5866 C52.5125,23.7126 52.0145,23.8686 51.5325,24.0516 C51.0475,24.2356 50.5725,24.4496 50.1075,24.6936 L51.5015,28.3696 L50.6135,29.0476 C50.1065,29.4356 49.6445,29.8686 49.2425,30.3346 L48.5105,31.1816 L44.9365,29.5736 C44.3975,30.4686 43.9695,31.4196 43.6575,32.4176 L47.1765,33.9996 L47.0925,35.0526 C47.0515,35.5716 46.9995,36.5626 47.0325,37.0136 L47.1135,38.1286 L43.4385,39.5246 C43.5645,40.0346 43.7195,40.5326 43.9035,41.0146 C44.0865,41.4996 44.3015,41.9756 44.5445,42.4396 L48.2185,41.0446 L48.8985,41.9316 C49.2895,42.4426 49.7225,42.9046 50.1865,43.3046 L51.0335,44.0366 L49.4245,47.6106 C50.3205,48.1496 51.2715,48.5776 52.2695,48.8896 L53.8765,45.3136 L54.9865,45.4626 C55.5915,45.5446 56.2245,45.5646 56.8655,45.5146 L57.9805,45.4336 Z M57.4535,52.4956 L55.9505,48.5376 C55.8735,48.5376 55.7955,48.5356 55.7185,48.5326 L53.9865,52.3866 L52.7985,52.1286 C50.5635,51.6446 48.4945,50.7136 46.6505,49.3636 L45.6695,48.6456 L47.4035,44.7926 C47.3495,44.7376 47.2965,44.6806 47.2445,44.6236 L43.2885,46.1246 L42.6295,45.1056 C42.0135,44.1496 41.4985,43.1316 41.0985,42.0806 C40.7015,41.0356 40.4115,39.9326 40.2365,38.8016 L40.0505,37.6016 L44.0315,36.0896 C44.0345,36.0186 44.0365,35.9486 44.0395,35.8786 L40.1605,34.1346 L40.4185,32.9476 C40.9025,30.7116 41.8335,28.6426 43.1835,26.7986 L43.9015,25.8186 L47.7535,27.5506 C47.8095,27.4976 47.8665,27.4456 47.9225,27.3926 L46.4215,23.4366 L47.4415,22.7786 C48.4015,22.1596 49.4185,21.6446 50.4675,21.2466 C51.5115,20.8496 52.6145,20.5596 53.7455,20.3846 L54.9455,20.1996 L56.4575,24.1796 C56.5285,24.1816 56.5985,24.1846 56.6685,24.1876 L58.4125,20.3086 L59.5995,20.5666 C61.8345,21.0506 63.9045,21.9816 65.7485,23.3316 L66.7285,24.0496 L64.9705,27.9576 L65.0975,28.0926 L69.1105,26.5696 L69.7685,27.5896 C70.3875,28.5506 70.9035,29.5686 71.2995,30.6166 C71.6975,31.6606 71.9875,32.7626 72.1625,33.8936 L72.3475,35.0946 L68.3905,36.5956 C68.3885,36.6736 68.3865,36.7506 68.3835,36.8286 L72.2385,38.5606 L71.9805,39.7476 C71.4965,41.9856 70.5655,44.0546 69.2145,45.8976 L68.4975,46.8766 L64.6445,45.1446 C64.5885,45.1976 64.5325,45.2496 64.4755,45.3026 L65.9775,49.2586 L64.9575,49.9166 C63.9965,50.5366 62.9785,51.0516 61.9305,51.4486 C60.8865,51.8456 59.7845,52.1356 58.6535,52.3106 L57.4535,52.4956 Z" id="Fill-3" fill="#1D1C1B"></path>
                <path d="M32.3105,21.5244 C32.3105,15.5874 27.4985,10.7744 21.5605,10.7744 C15.6235,10.7744 10.8105,15.5874 10.8105,21.5244 C10.8105,25.9724 13.5125,29.7894 17.3655,31.4234 L17.3655,34.1174 L25.7555,34.1174 L25.7555,31.4234 C29.6085,29.7894 32.3105,25.9724 32.3105,21.5244" id="Fill-5" fill="#FEFEFE"></path>
                <path d="M18.8652,32.6172 L24.2562,32.6172 L24.2562,30.4302 L25.1702,30.0432 C28.5962,28.5892 30.8102,25.2452 30.8102,21.5242 C30.8102,16.4242 26.6612,12.2742 21.5602,12.2742 C16.4602,12.2742 12.3102,16.4242 12.3102,21.5242 C12.3102,25.2452 14.5242,28.5892 17.9512,30.0432 L18.8652,30.4302 L18.8652,32.6172 Z M27.2562,35.6172 L15.8652,35.6172 L15.8652,32.3722 C11.8522,30.2672 9.3102,26.1122 9.3102,21.5242 C9.3102,14.7692 14.8052,9.2742 21.5602,9.2742 C28.3152,9.2742 33.8102,14.7692 33.8102,21.5242 C33.8102,26.1122 31.2682,30.2672 27.2562,32.3722 L27.2562,35.6172 Z" id="Fill-7" fill="#1D1C1B"></path>
                <mask id="mask-2" fill="white">
                    <use xlink:href="#path-1"></use>
                </mask>
                <g id="Clip-10"></g>
                <polygon id="Fill-9" fill="#FEFEFE" mask="url(#mask-2)" points="17.365 38.5781 25.757 38.5781 25.757 34.1171 17.365 34.1171"></polygon>
                <path d="M18.865,37.0781 L24.257,37.0781 L24.257,35.6171 L18.865,35.6171 L18.865,37.0781 Z M15.865,40.0781 L27.257,40.0781 L27.257,32.6171 L15.865,32.6171 L15.865,40.0781 Z" id="Fill-11" fill="#1D1C1B" mask="url(#mask-2)"></path>
                <polygon id="Fill-12" fill="#1D1C1B" mask="url(#mask-2)" points="20.061 34.1171 23.061 34.1171 23.061 27.0011 20.061 27.0011"></polygon>
                <path d="M21.5605,23.4844 C21.0045,23.4844 20.5525,23.9364 20.5525,24.4934 C20.5525,25.0484 21.0045,25.5014 21.5605,25.5014 C22.1175,25.5014 22.5695,25.0484 22.5695,24.4934 C22.5695,23.9364 22.1175,23.4844 21.5605,23.4844 M21.5605,28.5014 C19.3505,28.5014 17.5525,26.7034 17.5525,24.4934 C17.5525,22.2824 19.3505,20.4844 21.5605,20.4844 C23.7715,20.4844 25.5695,22.2824 25.5695,24.4934 C25.5695,26.7034 23.7715,28.5014 21.5605,28.5014" id="Fill-13" fill="#1D1C1B" mask="url(#mask-2)"></path>
                <polygon id="Fill-14" fill="#1D1C1B" mask="url(#mask-2)" points="20.061 6.1391 23.061 6.1391 23.061 0.0001 20.061 0.0001"></polygon>
                <polygon id="Fill-15" fill="#1D1C1B" mask="url(#mask-2)" points="33.5264 11.7158 31.4054 9.5948 35.7464 5.2538 37.8674 7.3748"></polygon>
                <polygon id="Fill-16" fill="#1D1C1B" mask="url(#mask-2)" points="36.983 23.0601 43.122 23.0601 43.122 20.0601 36.983 20.0601"></polygon>
                <polygon id="Fill-17" fill="#1D1C1B" mask="url(#mask-2)" points="35.749 37.8691 31.404 33.5251 33.525 31.4041 37.87 35.7481"></polygon>
                <polygon id="Fill-18" fill="#1D1C1B" mask="url(#mask-2)" points="9.5977 11.7188 5.2537 7.3748 7.3747 5.2538 11.7187 9.5978"></polygon>
                <polygon id="Fill-19" fill="#1D1C1B" mask="url(#mask-2)" points="0 23.0601 6.139 23.0601 6.139 20.0601 0 20.0601"></polygon>
                <polygon id="Fill-20" fill="#1D1C1B" mask="url(#mask-2)" points="7.375 37.8672 5.254 35.7462 9.595 31.4052 11.716 33.5262"></polygon>
                <path d="M60.2285,34.8184 C59.3835,32.5924 56.8955,31.4734 54.6695,32.3184 C52.4445,33.1634 51.3255,35.6524 52.1695,37.8774 C53.0145,40.1024 55.5035,41.2214 57.7285,40.3774 C59.9545,39.5324 61.0735,37.0434 60.2285,34.8184" id="Fill-21" fill="#FEFEFE" mask="url(#mask-2)"></path>
                <path d="M56.2012,33.5361 C55.8642,33.5361 55.5262,33.5981 55.2022,33.7211 C54.5002,33.9871 53.9442,34.5111 53.6372,35.1951 C53.3292,35.8801 53.3052,36.6431 53.5722,37.3451 C53.8392,38.0471 54.3622,38.6021 55.0472,38.9101 C55.7312,39.2191 56.4952,39.2401 57.1962,38.9741 C57.8982,38.7081 58.4542,38.1841 58.7622,37.5001 C59.0692,36.8151 59.0932,36.0521 58.8262,35.3501 C58.5592,34.6481 58.0362,34.0931 57.3512,33.7851 C56.9832,33.6191 56.5932,33.5361 56.2012,33.5361 M56.1972,42.1601 C55.3872,42.1611 54.5782,41.9891 53.8162,41.6461 C52.4012,41.0101 51.3182,39.8601 50.7672,38.4091 C50.2172,36.9591 50.2642,35.3811 50.9002,33.9651 C51.5372,32.5501 52.6862,31.4671 54.1382,30.9161 C55.5882,30.3641 57.1682,30.4131 58.5822,31.0491 C59.9972,31.6851 61.0802,32.8351 61.6312,34.2861 C62.1812,35.7361 62.1352,37.3151 61.4982,38.7301 C60.8612,40.1451 59.7122,41.2281 58.2612,41.7791 C57.5912,42.0341 56.8922,42.1601 56.1972,42.1601" id="Fill-22" fill="#1D1C1B" mask="url(#mask-2)"></path>
            </g>
        </g>
    </g>
</svg>