<?xml version="1.0" encoding="UTF-8" standalone="no"?>
<svg width="108px" height="109px" viewBox="0 0 108 109" version="1.1" xmlns="http://www.w3.org/2000/svg" xmlns:xlink="http://www.w3.org/1999/xlink">
    <!-- Generator: Sketch 41.2 (35397) - http://www.bohemiancoding.com/sketch -->
    <title>etapa-4</title>
    <desc>Created with Sketch.</desc>
    <defs></defs>
    <g id="Page-1" stroke="none" stroke-width="1" fill="none" fill-rule="evenodd">
        <g id="etapa-4">
            <path d="M106.938963,54.0422418 C106.938963,24.7469451 83.2234074,1 53.9694815,1 C24.7155556,1 1,24.7469451 1,54.0422418 C1,83.3375385 24.7155556,107.084484 53.9694815,107.084484 C83.2234074,107.084484 106.938963,83.3375385 106.938963,54.0422418" id="Fill-1-Copy" fill="#32AEC1"></path>
            <g id="Page-1" transform="translate(36.000000, 32.000000)">
                <polygon id="Fill-1" fill="#FEFEFE" points="0.575757576 45.43443 37.3056364 45.43443 37.3056364 0.57408 0.575757576 0.57408"></polygon>
                <polygon id="Stroke-2" stroke="#1D1C1B" stroke-width="3" points="0.575757576 45.43443 37.3056364 45.43443 37.3056364 0.57408 0.575757576 0.57408"></polygon>
                <path d="M13.3804909,12.184825 L31.6746121,12.184825" id="Stroke-4" stroke="#1D1C1B" stroke-width="3"></path>
                <g id="Group-19" transform="translate(5.757576, 10.209430)">
                    <path d="M4.24367879,1.975395 C4.24367879,0.934645 3.39846667,0.089395 2.35404242,0.089395 C1.31192121,0.089395 0.466709091,0.934645 0.466709091,1.975395 C0.466709091,3.017295 1.31192121,3.862545 2.35404242,3.862545 C3.39846667,3.862545 4.24367879,3.017295 4.24367879,1.975395" id="Fill-5" fill="#1D1C1B"></path>
                    <path d="M7.62291515,9.210045 L25.9170364,9.210045" id="Stroke-7" stroke="#1D1C1B" stroke-width="3"></path>
                    <path d="M4.24367879,9.210045 C4.24367879,8.168145 3.39846667,7.322895 2.35404242,7.322895 C1.31192121,7.322895 0.466709091,8.168145 0.466709091,9.210045 C0.466709091,10.250795 1.31192121,11.096045 2.35404242,11.096045 C3.39846667,11.096045 4.24367879,10.250795 4.24367879,9.210045" id="Fill-9" fill="#1D1C1B"></path>
                    <path d="M7.62291515,16.44366 L25.9170364,16.44366" id="Stroke-11" stroke="#1D1C1B" stroke-width="3"></path>
                    <path d="M4.24367879,16.44366 C4.24367879,15.40176 3.39846667,14.55766 2.35404242,14.55766 C1.31192121,14.55766 0.466709091,15.40176 0.466709091,16.44366 C0.466709091,17.48556 1.31192121,18.33081 2.35404242,18.33081 C3.39846667,18.33081 4.24367879,17.48556 4.24367879,16.44366" id="Fill-13" fill="#1D1C1B"></path>
                    <path d="M7.62291515,23.67716 L25.9170364,23.67716" id="Stroke-15" stroke="#1D1C1B" stroke-width="3"></path>
                    <path d="M4.24367879,23.67716 C4.24367879,22.63641 3.39846667,21.79116 2.35404242,21.79116 C1.31192121,21.79116 0.466709091,22.63641 0.466709091,23.67716 C0.466709091,24.71906 1.31192121,25.56431 2.35404242,25.56431 C3.39846667,25.56431 4.24367879,24.71906 4.24367879,23.67716" id="Fill-17" fill="#1D1C1B"></path>
                </g>
            </g>
        </g>
    </g>
</svg>