<?xml version="1.0" encoding="UTF-8" standalone="no"?>
<svg width="108px" height="109px" viewBox="0 0 108 109" version="1.1" xmlns="http://www.w3.org/2000/svg" xmlns:xlink="http://www.w3.org/1999/xlink">
    <!-- Generator: Sketch 41.2 (35397) - http://www.bohemiancoding.com/sketch -->
    <title>etapa-1</title>
    <desc>Created with Sketch.</desc>
    <defs></defs>
    <g id="Page-1" stroke="none" stroke-width="1" fill="none" fill-rule="evenodd">
        <g id="etapa-1">
            <path d="M106.938963,54.0422418 C106.938963,24.7469451 83.2234074,1 53.9694815,1 C24.7155556,1 1,24.7469451 1,54.0422418 C1,83.3375385 24.7155556,107.084484 53.9694815,107.084484 C83.2234074,107.084484 106.938963,83.3375385 106.938963,54.0422418" id="Fill-1" fill="#F7BD3A"></path>
            <g id="Group" transform="translate(28.000000, 29.000000)">
                <polygon id="Fill-4" fill="#FEFEFE" points="4 43.5905934 47.1644444 43.5905934 47.1644444 12 4 12"></polygon>
                <polygon id="Stroke-5" stroke="#1D1C1B" stroke-width="3" points="4 43.5905934 47.1644444 43.5905934 47.1644444 12 4 12"></polygon>
                <polygon id="Fill-7" fill="#FEFEFE" points="0 12.3007912 51.2035556 12.3007912 51.2035556 6 0 6"></polygon>
                <polygon id="Stroke-8" stroke="#1D1C1B" stroke-width="3" points="0 12.3007912 51.2035556 12.3007912 51.2035556 6 0 6"></polygon>
                <g id="Group-12" transform="translate(15.000000, 43.000000)">
                    <path d="M10.9943704,0.511516484 L0.831407407,10.6884396" id="Fill-10" fill="#FEFEFE"></path>
                    <path d="M10.9943704,0.511516484 L0.831407407,10.6884396" id="Stroke-11" stroke="#1D1C1B" stroke-width="3"></path>
                </g>
                <g id="Group-15" transform="translate(26.000000, 43.000000)">
                    <path d="M0.327703704,0.511516484 L10.4906667,10.6884396" id="Fill-13" fill="#FEFEFE"></path>
                    <path d="M0.327703704,0.511516484 L10.4906667,10.6884396" id="Stroke-14" stroke="#1D1C1B" stroke-width="3"></path>
                </g>
                <path d="M26,54.7114725 L26,43 L26,54.7114725 Z" id="Fill-16" fill="#FEFEFE"></path>
                <path d="M26,43 L26,54.7102857" id="Stroke-17" stroke="#1D1C1B" stroke-width="3"></path>
                <path d="M26,5.6883956 L26,7.10542736e-15 L26,5.6883956 Z" id="Fill-18" fill="#FEFEFE"></path>
                <path d="M26,5.68958242 L26,0" id="Stroke-19" stroke="#1D1C1B" stroke-width="3"></path>
            </g>
        </g>
    </g>
</svg>