<?xml version="1.0" encoding="UTF-8" standalone="no"?>
<svg width="108px" height="109px" viewBox="0 0 108 109" version="1.1" xmlns="http://www.w3.org/2000/svg" xmlns:xlink="http://www.w3.org/1999/xlink">
    <!-- Generator: Sketch 41.2 (35397) - http://www.bohemiancoding.com/sketch -->
    <title>etapa-2</title>
    <desc>Created with Sketch.</desc>
    <defs></defs>
    <g id="Page-1" stroke="none" stroke-width="1" fill="none" fill-rule="evenodd">
        <g id="etapa-2">
            <path d="M106.938963,54.0422418 C106.938963,24.7469451 83.2234074,1 53.9694815,1 C24.7155556,1 1,24.7469451 1,54.0422418 C1,83.3375385 24.7155556,107.084484 53.9694815,107.084484 C83.2234074,107.084484 106.938963,83.3375385 106.938963,54.0422418" id="Fill-1-Copy" fill="#32AEC1"></path>
            <g id="Page-1" transform="translate(28.000000, 31.000000)">
                <path d="M17.0739,14.6117 L25.9259,41.7727" id="Stroke-1" stroke="#1D1C1B" stroke-width="3"></path>
                <path d="M47.0651,27.3724 L39.8781,4.8324" id="Stroke-3" stroke="#1D1C1B" stroke-width="3"></path>
                <path d="M25.9254,41.7728 L39.8774,4.8328" id="Stroke-5" stroke="#1D1C1B" stroke-width="3"></path>
                <path d="M4.8327,34.3089 L17.0737,14.6119" id="Stroke-7" stroke="#1D1C1B" stroke-width="3"></path>
                <path d="M47.0651,27.3724 L17.0741,14.6114" id="Stroke-9" stroke="#1D1C1B" stroke-width="3"></path>
                <path d="M25.9254,41.7728 L4.8324,34.3088" id="Stroke-11" stroke="#1D1C1B" stroke-width="3"></path>
                <path d="M47.0651,27.3724 L25.9251,41.7724" id="Stroke-13" stroke="#1D1C1B" stroke-width="3"></path>
                <path d="M21.65,42.475 C21.262,40.115 22.862,37.886 25.223,37.498 C27.584,37.111 29.812,38.71 30.2,41.071 C30.588,43.432 28.988,45.66 26.628,46.048 C24.266,46.436 22.038,44.836 21.65,42.475" id="Fill-15" fill="#FEFEFE"></path>
                <path d="M21.65,42.475 C21.262,40.115 22.862,37.886 25.223,37.498 C27.584,37.111 29.812,38.71 30.2,41.071 C30.588,43.432 28.988,45.66 26.628,46.048 C24.266,46.436 22.038,44.836 21.65,42.475 Z" id="Stroke-17" stroke="#1D1C1B" stroke-width="3"></path>
                <path d="M42.7907,28.0746 C42.4027,25.7136 44.0027,23.4846 46.3627,23.0966 C48.7247,22.7096 50.9517,24.3086 51.3407,26.6706 C51.7287,29.0306 50.1287,31.2596 47.7677,31.6466 C45.4057,32.0346 43.1787,30.4346 42.7907,28.0746" id="Fill-19" fill="#FEFEFE"></path>
                <path d="M42.7907,28.0746 C42.4027,25.7136 44.0027,23.4846 46.3627,23.0966 C48.7247,22.7096 50.9517,24.3086 51.3407,26.6706 C51.7287,29.0306 50.1287,31.2596 47.7677,31.6466 C45.4057,32.0346 43.1787,30.4346 42.7907,28.0746 Z" id="Stroke-21" stroke="#1D1C1B" stroke-width="3"></path>
                <path d="M12.7995,15.3138 C12.4115,12.9528 14.0115,10.7248 16.3715,10.3358 C18.7335,9.9488 20.9615,11.5478 21.3495,13.9098 C21.7375,16.2708 20.1375,18.4988 17.7765,18.8858 C15.4155,19.2738 13.1875,17.6738 12.7995,15.3138" id="Fill-23" fill="#FEFEFE"></path>
                <path d="M12.7995,15.3138 C12.4115,12.9528 14.0115,10.7248 16.3715,10.3358 C18.7335,9.9488 20.9615,11.5478 21.3495,13.9098 C21.7375,16.2708 20.1375,18.4988 17.7765,18.8858 C15.4155,19.2738 13.1875,17.6738 12.7995,15.3138 Z" id="Stroke-25" stroke="#1D1C1B" stroke-width="3"></path>
                <path d="M0.5582,35.0101 C0.1702,32.6501 1.7702,30.4211 4.1302,30.0331 C6.4922,29.6461 8.7192,31.2451 9.1082,33.6071 C9.4962,35.9671 7.8962,38.1961 5.5352,38.5831 C3.1732,38.9711 0.9462,37.3711 0.5582,35.0101" id="Fill-27" fill="#FEFEFE"></path>
                <path d="M0.5582,35.0101 C0.1702,32.6501 1.7702,30.4211 4.1302,30.0331 C6.4922,29.6461 8.7192,31.2451 9.1082,33.6071 C9.4962,35.9671 7.8962,38.1961 5.5352,38.5831 C3.1732,38.9711 0.9462,37.3711 0.5582,35.0101 Z" id="Stroke-29" stroke="#1D1C1B" stroke-width="3"></path>
                <path d="M35.6022,5.5345 C35.2142,3.1745 36.8142,0.9455 39.1752,0.5575 C41.5362,0.1705 43.7642,1.7695 44.1522,4.1305 C44.5402,6.4915 42.9402,8.7205 40.5802,9.1075 C38.2182,9.4955 35.9902,7.8955 35.6022,5.5345" id="Fill-31" fill="#FEFEFE"></path>
                <path d="M35.6022,5.5345 C35.2142,3.1745 36.8142,0.9455 39.1752,0.5575 C41.5362,0.1705 43.7642,1.7695 44.1522,4.1305 C44.5402,6.4915 42.9402,8.7205 40.5802,9.1075 C38.2182,9.4955 35.9902,7.8955 35.6022,5.5345 Z" id="Stroke-33" stroke="#1D1C1B" stroke-width="3"></path>
            </g>
        </g>
    </g>
</svg>