<?xml version="1.0" encoding="UTF-8" standalone="no"?>
<svg width="254px" height="65px" viewBox="0 0 254 65" version="1.1" xmlns="http://www.w3.org/2000/svg" xmlns:xlink="http://www.w3.org/1999/xlink">
    <!-- Generator: Sketch 41.1 (35376) - http://www.bohemiancoding.com/sketch -->
    <title>logo-escuela</title>
    <desc>Created with Sketch.</desc>
    <defs>
        <polygon id="path-1" points="5 59.9138 248.225 59.9138 248.225 6.9998 5 6.9998"></polygon>
    </defs>
    <g id="Page-1" stroke="none" stroke-width="1" fill="none" fill-rule="evenodd">
        <g id="logo-escuela">
            <polygon id="Fill-1" fill="#1D1C1B" points="80.584 57.3798 85.121 57.3798 85.121 41.1068 80.584 41.1068"></polygon>
            <path d="M93.9528,48.3056 L93.9528,57.3806 L89.4158,57.3806 L89.4158,41.1066 L93.9528,41.1066 L93.9528,42.9226 C95.3238,41.5306 96.8668,40.8346 98.5808,40.8346 C100.2948,40.8346 101.7318,41.4386 102.8918,42.6486 C104.0498,43.8596 104.6308,45.4736 104.6308,47.4896 L104.6308,57.3806 L100.0928,57.3806 L100.0928,48.1846 C100.0928,45.6856 99.1748,44.4336 97.3408,44.4336 C96.4338,44.4336 95.6418,44.7626 94.9668,45.4166 C94.2898,46.0726 93.9528,47.0356 93.9528,48.3056 Z" id="Fill-2" fill="#1D1C1B"></path>
            <path d="M116.5486,53.5992 C118.0596,53.5992 119.4216,52.8432 120.6306,51.3312 L123.3236,54.3552 C121.2256,56.5332 118.9576,57.6222 116.5176,57.6222 C114.0776,57.6222 112.0156,56.8512 110.3316,55.3092 C108.6486,53.7652 107.8066,51.7492 107.8066,49.2582 C107.8066,46.7682 108.6576,44.7412 110.3626,43.1792 C112.0666,41.6162 114.0866,40.8352 116.4266,40.8352 C117.5956,40.8352 118.7816,41.0772 119.9816,41.5612 C121.1796,42.0442 122.2346,42.7612 123.1416,43.7082 L120.7826,46.7932 C120.2586,46.1692 119.6186,45.6852 118.8626,45.3422 C118.1056,44.9982 117.3546,44.8272 116.6086,44.8272 C115.4186,44.8272 114.3946,45.2162 113.5386,45.9922 C112.6816,46.7682 112.2536,47.8482 112.2536,49.2292 C112.2536,50.6092 112.6816,51.6842 113.5386,52.4492 C114.3946,53.2162 115.3986,53.5992 116.5486,53.5992" id="Fill-4" fill="#1D1C1B"></path>
            <mask id="mask-2" fill="white">
                <use xlink:href="#path-1"></use>
            </mask>
            <g id="Clip-7"></g>
            <path d="M126.348,57.3798 L130.885,57.3798 L130.885,41.1068 L126.348,41.1068 L126.348,57.3798 Z M126.726,39.0358 C126.211,38.5208 125.954,37.8908 125.954,37.1448 C125.954,36.3988 126.211,35.7678 126.726,35.2548 C127.24,34.7398 127.87,34.4828 128.616,34.4828 C129.362,34.4828 129.992,34.7398 130.507,35.2548 C131.021,35.7678 131.279,36.3988 131.279,37.1448 C131.279,37.8908 131.021,38.5208 130.507,39.0358 C129.992,39.5488 129.362,39.8058 128.616,39.8058 C127.87,39.8058 127.24,39.5488 126.726,39.0358 L126.726,39.0358 Z" id="Fill-6" fill="#1D1C1B" mask="url(#mask-2)"></path>
            <path d="M138.8404,49.2742 C138.8404,50.5852 139.2334,51.6582 140.0194,52.4952 C140.8064,53.3322 141.7224,53.7502 142.7714,53.7502 C143.8204,53.7502 144.7124,53.3322 145.4484,52.4952 C146.1844,51.6582 146.5524,50.5802 146.5524,49.2582 C146.5524,47.9372 146.1844,46.8382 145.4484,45.9622 C144.7124,45.0842 143.8104,44.6462 142.7424,44.6462 C141.6724,44.6462 140.7554,45.0892 139.9884,45.9772 C139.2234,46.8642 138.8404,47.9632 138.8404,49.2742 M141.6984,57.6222 C139.7724,57.6222 138.0544,56.8052 136.5414,55.1722 C135.0284,53.5392 134.2734,51.5122 134.2734,49.0922 C134.2734,46.6722 135.0094,44.6912 136.4814,43.1482 C137.9514,41.6062 139.6764,40.8352 141.6524,40.8352 C143.6294,40.8352 145.2414,41.5302 146.4924,42.9222 L146.4924,34.9372 L151.0304,34.9372 L151.0304,57.3802 L146.4924,57.3802 L146.4924,55.2322 C145.2224,56.8262 143.6234,57.6222 141.6984,57.6222" id="Fill-8" fill="#1D1C1B" mask="url(#mask-2)"></path>
            <path d="M163.1581,44.7671 C162.0491,44.7671 161.0661,45.1301 160.2091,45.8561 C159.3511,46.5811 158.9231,47.5901 158.9231,48.8801 C158.9231,49.1231 158.9341,49.3041 158.9541,49.4251 L166.0321,46.5521 C165.7701,45.3611 164.8111,44.7671 163.1581,44.7671 M163.0071,53.9021 C163.8731,53.9021 164.7161,53.6851 165.5321,53.2511 C166.3491,52.8181 166.9991,52.2381 167.4831,51.5121 L170.0851,54.3251 C168.0071,56.5231 165.6641,57.6221 163.0521,57.6221 C160.4401,57.6221 158.3591,56.8261 156.8061,55.2321 C155.2531,53.6401 154.4771,51.6081 154.4771,49.1371 C154.4771,46.6671 155.3291,44.6661 157.0321,43.1341 C158.7371,41.6011 160.6981,40.8351 162.9161,40.8351 C165.1351,40.8351 166.9891,41.4601 168.4811,42.7101 C169.9741,43.9611 170.7801,45.5731 170.9021,47.5501 L170.9021,48.1251 L160.0721,52.6011 C160.7581,53.4691 161.7361,53.9021 163.0071,53.9021" id="Fill-9" fill="#1D1C1B" mask="url(#mask-2)"></path>
            <path d="M178.6745,48.3056 L178.6745,57.3806 L174.1375,57.3806 L174.1375,41.1066 L178.6745,41.1066 L178.6745,42.9226 C180.0455,41.5306 181.5885,40.8346 183.3025,40.8346 C185.0165,40.8346 186.4535,41.4386 187.6135,42.6486 C188.7715,43.8596 189.3525,45.4736 189.3525,47.4896 L189.3525,57.3806 L184.8145,57.3806 L184.8145,48.1846 C184.8145,45.6856 183.8965,44.4336 182.0625,44.4336 C181.1555,44.4336 180.3635,44.7626 179.6885,45.4166 C179.0115,46.0726 178.6745,47.0356 178.6745,48.3056" id="Fill-10" fill="#1D1C1B" mask="url(#mask-2)"></path>
            <path d="M201.2703,53.5992 C202.7813,53.5992 204.1433,52.8432 205.3523,51.3312 L208.0453,54.3552 C205.9473,56.5332 203.6793,57.6222 201.2393,57.6222 C198.7993,57.6222 196.7373,56.8512 195.0533,55.3092 C193.3703,53.7652 192.5283,51.7492 192.5283,49.2582 C192.5283,46.7682 193.3793,44.7412 195.0843,43.1792 C196.7883,41.6162 198.8083,40.8352 201.1483,40.8352 C202.3173,40.8352 203.5033,41.0772 204.7033,41.5612 C205.9013,42.0442 206.9563,42.7612 207.8633,43.7082 L205.5043,46.7932 C204.9803,46.1692 204.3403,45.6852 203.5843,45.3422 C202.8273,44.9982 202.0763,44.8272 201.3303,44.8272 C200.1403,44.8272 199.1163,45.2162 198.2603,45.9922 C197.4033,46.7682 196.9753,47.8482 196.9753,49.2292 C196.9753,50.6092 197.4033,51.6842 198.2603,52.4492 C199.1163,53.2162 200.1203,53.5992 201.2703,53.5992" id="Fill-11" fill="#1D1C1B" mask="url(#mask-2)"></path>
            <polygon id="Fill-12" fill="#1D1C1B" mask="url(#mask-2)" points="211.069 57.3798 215.606 57.3798 215.606 41.1068 211.069 41.1068"></polygon>
            <path d="M223.652,49.2742 C223.652,50.6042 224.046,51.6892 224.832,52.5262 C225.619,53.3632 226.536,53.7802 227.584,53.7802 C228.633,53.7802 229.52,53.3632 230.246,52.5262 C230.973,51.6892 231.336,50.6092 231.336,49.2892 C231.336,47.9682 230.973,46.8642 230.246,45.9772 C229.52,45.0892 228.623,44.6462 227.555,44.6462 C226.485,44.6462 225.568,45.0842 224.802,45.9622 C224.035,46.8382 223.652,47.9422 223.652,49.2742 M221.414,55.2922 C219.861,53.7402 219.085,51.6992 219.085,49.1682 C219.085,46.6382 219.881,44.6162 221.475,43.1032 C223.067,41.5902 224.912,40.8352 227.01,40.8352 C228.643,40.8352 230.064,41.3792 231.274,42.4682 L231.274,41.1072 L235.842,41.1072 L235.842,57.3802 L231.274,57.3802 L231.274,56.0492 C229.984,57.0982 228.512,57.6222 226.858,57.6222 C224.782,57.6222 222.966,56.8462 221.414,55.2922" id="Fill-13" fill="#1D1C1B" mask="url(#mask-2)"></path>
            <path d="M112.3843,24.717 C112.3843,26.319 111.7943,27.606 110.6143,28.573 C109.4353,29.54 107.9383,30.025 106.1233,30.025 C104.9133,30.025 103.6533,29.807 102.3423,29.374 C101.0313,28.941 99.8513,28.301 98.8043,27.454 L100.8003,24.611 C102.4933,25.922 104.2983,26.577 106.2143,26.577 C106.7993,26.577 107.2623,26.461 107.6053,26.228 C107.9483,25.997 108.1193,25.689 108.1193,25.307 C108.1193,24.924 107.8823,24.571 107.4083,24.248 C106.9343,23.926 106.2493,23.623 105.3513,23.34 C104.4543,23.058 103.7693,22.815 103.2953,22.614 C102.8213,22.413 102.2823,22.12 101.6763,21.737 C100.4473,20.971 99.8313,19.837 99.8313,18.334 C99.8313,16.833 100.4373,15.607 101.6473,14.659 C102.8573,13.711 104.4183,13.238 106.3353,13.238 C108.2503,13.238 110.1663,13.882 112.0813,15.174 L110.3883,18.198 C108.9763,17.23 107.5693,16.746 106.1693,16.746 C104.7673,16.746 104.0663,17.129 104.0663,17.896 C104.0663,18.319 104.2883,18.652 104.7313,18.894 C105.1753,19.135 105.9113,19.419 106.9393,19.741 C107.9683,20.063 108.6993,20.311 109.1323,20.482 C109.5663,20.653 110.0853,20.92 110.6903,21.283 C111.8193,21.969 112.3843,23.113 112.3843,24.717" id="Fill-14" fill="#1D1C1B" mask="url(#mask-2)"></path>
            <path d="M123.6669,26.0019 C125.1779,26.0019 126.5399,25.2459 127.7489,23.7339 L130.4419,26.7579 C128.3439,28.9359 126.0759,30.0249 123.6359,30.0249 C121.1959,30.0249 119.1339,29.2539 117.4499,27.7119 C115.7669,26.1679 114.9249,24.1519 114.9249,21.6609 C114.9249,19.1709 115.7759,17.1439 117.4809,15.5819 C119.1849,14.0189 121.2049,13.2379 123.5449,13.2379 C124.7139,13.2379 125.8999,13.4799 127.0999,13.9639 C128.2979,14.4469 129.3529,15.1639 130.2599,16.1109 L127.9009,19.1959 C127.3769,18.5719 126.7369,18.0879 125.9809,17.7449 C125.2239,17.4009 124.4729,17.2299 123.7269,17.2299 C122.5369,17.2299 121.5129,17.6189 120.6569,18.3949 C119.7999,19.1709 119.3719,20.2509 119.3719,21.6319 C119.3719,23.0119 119.7999,24.0869 120.6569,24.8519 C121.5129,25.6189 122.5169,26.0019 123.6669,26.0019" id="Fill-15" fill="#1D1C1B" mask="url(#mask-2)"></path>
            <path d="M143.9624,22.2813 L143.9624,13.5093 L148.5294,13.5093 L148.5294,29.7833 L143.9624,29.7833 L143.9624,27.6353 C142.8324,29.2293 141.3764,30.0253 139.5924,30.0253 C137.8074,30.0253 136.3094,29.4653 135.0994,28.3463 C133.8894,27.2263 133.2844,25.5683 133.2844,23.3703 L133.2844,13.5093 L137.8514,13.5093 L137.8514,22.3723 C137.8514,24.8733 138.7694,26.1223 140.6044,26.1223 C141.5124,26.1223 142.2984,25.7953 142.9644,25.1403 C143.6284,24.4843 143.9624,23.5313 143.9624,22.2813" id="Fill-16" fill="#1D1C1B" mask="url(#mask-2)"></path>
            <path d="M160.6591,17.1698 C159.5501,17.1698 158.5671,17.5328 157.7101,18.2588 C156.8521,18.9838 156.4241,19.9928 156.4241,21.2828 C156.4241,21.5258 156.4351,21.7068 156.4551,21.8278 L163.5331,18.9548 C163.2711,17.7638 162.3121,17.1698 160.6591,17.1698 M160.5081,26.3048 C161.3741,26.3048 162.2171,26.0878 163.0331,25.6538 C163.8501,25.2208 164.5001,24.6408 164.9841,23.9148 L167.5861,26.7278 C165.5081,28.9258 163.1651,30.0248 160.5531,30.0248 C157.9411,30.0248 155.8601,29.2288 154.3071,27.6348 C152.7541,26.0428 151.9781,24.0108 151.9781,21.5398 C151.9781,19.0698 152.8301,17.0688 154.5331,15.5368 C156.2381,14.0038 158.1991,13.2378 160.4171,13.2378 C162.6361,13.2378 164.4901,13.8628 165.9821,15.1128 C167.4751,16.3638 168.2811,17.9758 168.4031,19.9528 L168.4031,20.5278 L157.5731,25.0038 C158.2591,25.8718 159.2371,26.3048 160.5081,26.3048" id="Fill-17" fill="#1D1C1B" mask="url(#mask-2)"></path>
            <path d="M176.2062,8.6393 L176.2062,24.0663 C176.2062,24.6913 176.3672,25.1813 176.6902,25.5333 C177.0122,25.8863 177.3952,26.0623 177.8392,26.0623 C178.6862,26.0623 179.4012,25.6793 179.9872,24.9123 L181.6802,28.0893 C180.2692,29.3793 178.7822,30.0253 177.2192,30.0253 C175.6562,30.0253 174.3352,29.5113 173.2572,28.4823 C172.1782,27.4543 171.6392,26.0523 171.6392,24.2773 L171.6392,8.6393 L176.2062,8.6393 Z" id="Fill-18" fill="#1D1C1B" mask="url(#mask-2)"></path>
            <path d="M187.8814,21.6769 C187.8814,23.0069 188.2754,24.0919 189.0614,24.9289 C189.8484,25.7659 190.7654,26.1829 191.8134,26.1829 C192.8624,26.1829 193.7494,25.7659 194.4754,24.9289 C195.2024,24.0919 195.5654,23.0119 195.5654,21.6919 C195.5654,20.3709 195.2024,19.2669 194.4754,18.3799 C193.7494,17.4919 192.8524,17.0489 191.7844,17.0489 C190.7144,17.0489 189.7974,17.4869 189.0314,18.3649 C188.2644,19.2409 187.8814,20.3449 187.8814,21.6769 M185.6434,27.6959 C184.0904,26.1429 183.3144,24.1019 183.3144,21.5709 C183.3144,19.0409 184.1104,17.0189 185.7044,15.5059 C187.2964,13.9929 189.1414,13.2379 191.2394,13.2379 C192.8724,13.2379 194.2934,13.7819 195.5034,14.8709 L195.5034,13.5099 L200.0714,13.5099 L200.0714,29.7829 L195.5034,29.7829 L195.5034,28.4519 C194.2134,29.5009 192.7414,30.0249 191.0874,30.0249 C189.0114,30.0249 187.1954,29.2489 185.6434,27.6959" id="Fill-19" fill="#1D1C1B" mask="url(#mask-2)"></path>
            <path d="M67.7717,34.0561 C67.7717,22.3151 58.2537,12.7981 46.5137,12.7981 C34.7727,12.7981 25.2547,22.3151 25.2547,34.0561 C25.2547,45.7971 34.7727,55.3141 46.5137,55.3141 C58.2537,55.3141 67.7717,45.7971 67.7717,34.0561" id="Fill-24" fill="#32AEC1" mask="url(#mask-2)"></path>
            <path d="M216.1634,21.6769 C216.1634,22.9879 216.5564,24.0609 217.3424,24.8979 C218.1294,25.7349 219.0454,26.1529 220.0944,26.1529 C221.1434,26.1529 222.0354,25.7349 222.7714,24.8979 C223.5074,24.0609 223.8754,22.9829 223.8754,21.6609 C223.8754,20.3399 223.5074,19.2409 222.7714,18.3649 C222.0354,17.4869 221.1334,17.0489 220.0654,17.0489 C218.9954,17.0489 218.0784,17.4919 217.3114,18.3799 C216.5464,19.2669 216.1634,20.3659 216.1634,21.6769 M219.0214,30.0249 C217.0954,30.0249 215.3774,29.2079 213.8644,27.5749 C212.3514,25.9419 211.5964,23.9149 211.5964,21.4949 C211.5964,19.0749 212.3324,17.0939 213.8044,15.5509 C215.2744,14.0089 216.9994,13.2379 218.9754,13.2379 C220.9524,13.2379 222.5644,13.9329 223.8154,15.3249 L223.8154,7.3399 L228.3534,7.3399 L228.3534,29.7829 L223.8154,29.7829 L223.8154,27.6349 C222.5454,29.2289 220.9464,30.0249 219.0214,30.0249" id="Fill-20" fill="#1D1C1B" mask="url(#mask-2)"></path>
            <path d="M240.4811,17.1698 C239.3721,17.1698 238.3891,17.5328 237.5321,18.2588 C236.6741,18.9838 236.2461,19.9928 236.2461,21.2828 C236.2461,21.5258 236.2571,21.7068 236.2771,21.8278 L243.3551,18.9548 C243.0931,17.7638 242.1341,17.1698 240.4811,17.1698 M240.3301,26.3048 C241.1961,26.3048 242.0391,26.0878 242.8551,25.6538 C243.6721,25.2208 244.3221,24.6408 244.8061,23.9148 L247.4081,26.7278 C245.3301,28.9258 242.9871,30.0248 240.3751,30.0248 C237.7631,30.0248 235.6821,29.2288 234.1291,27.6348 C232.5761,26.0428 231.8001,24.0108 231.8001,21.5398 C231.8001,19.0698 232.6521,17.0688 234.3551,15.5368 C236.0601,14.0038 238.0211,13.2378 240.2391,13.2378 C242.4581,13.2378 244.3121,13.8628 245.8041,15.1128 C247.2971,16.3638 248.1031,17.9758 248.2251,19.9528 L248.2251,20.5278 L237.3951,25.0038 C238.0811,25.8718 239.0591,26.3048 240.3301,26.3048" id="Fill-21" fill="#1D1C1B" mask="url(#mask-2)"></path>
            <polygon id="Fill-22" fill="#1D1C1B" mask="url(#mask-2)" points="85.5381 25.9611 85.5381 21.2331 95.7471 21.2331 95.7471 17.3711 85.5381 17.3711 85.5381 12.7031 96.8491 12.7031 96.8491 8.8421 80.5141 8.8421 80.5141 29.8221 97.1851 29.8221 97.1851 25.9611"></polygon>
            <path d="M49.5786,47.9526 C48.6356,47.9526 47.7096,47.8796 46.8056,47.7406 L46.8056,18.1076 L35.7576,18.1076 C39.0856,14.1876 44.0446,11.6926 49.5786,11.6926 C59.5756,11.6926 67.7086,19.8256 67.7086,29.8226 C67.7086,39.8196 59.5756,47.9526 49.5786,47.9526 L49.5786,47.9526 Z M42.1136,46.3376 C35.8306,43.4866 31.4486,37.1586 31.4486,29.8226 C31.4486,27.3336 31.9536,24.9616 32.8646,22.8006 L42.1136,22.8006 L42.1136,46.3376 Z M42.1136,55.2216 L9.6926,55.2216 L9.6926,22.8006 L27.8666,22.8006 C27.1486,25.0146 26.7556,27.3726 26.7556,29.8226 C26.7556,39.7926 33.1846,48.2846 42.1136,51.3846 L42.1136,55.2216 Z M49.5786,6.9996 C41.2746,6.9996 33.9946,11.4596 30.0006,18.1076 L4.9996,18.1076 L4.9996,59.9136 L46.8056,59.9136 L46.8056,52.4706 C47.7156,52.5816 48.6396,52.6446 49.5786,52.6446 C62.1626,52.6446 72.4016,42.4066 72.4016,29.8226 C72.4016,17.2386 62.1626,6.9996 49.5786,6.9996 L49.5786,6.9996 Z" id="Fill-23" fill="#1D1C1B" mask="url(#mask-2)"></path>
        </g>
    </g>
</svg>